<svg id="visual" viewBox="0 0 900 450" width="900" height="450" xmlns="http://www.w3.org/2000/svg" xmlns:xlink="http://www.w3.org/1999/xlink" version="1.1"><g transform="translate(444.0207997786401 223.15965135562408)"><path d="M136.5 -158.2C175.7 -129.8 205.6 -85.6 212.1 -38.8C218.7 8 202 57.5 177.8 105.8C153.7 154 122 201.1 80.8 211.6C39.6 222.1 -11.2 196.1 -51.6 169.4C-92 142.7 -122.1 115.3 -148.1 80.5C-174 45.8 -195.8 3.7 -200.6 -46.8C-205.4 -97.4 -193.1 -156.4 -156.8 -185.4C-120.5 -214.3 -60.3 -213.1 -5.8 -206.2C48.6 -199.3 97.3 -186.6 136.5 -158.2" fill="#8174A0"></path></g></svg>